<mxfile host="app.diagrams.net" agent="Mozilla/5.0 (Macintosh; Intel Mac OS X 10_15_7) AppleWebKit/537.36 (KHTML, like Gecko) Chrome/131.0.0.0 Safari/537.36 OPR/116.0.0.0" version="26.0.13">
  <diagram name="Page-1" id="5VxgeuMDZiG-rEa_z9wu">
    <mxGraphModel dx="2317" dy="1150" grid="1" gridSize="10" guides="1" tooltips="1" connect="1" arrows="1" fold="1" page="1" pageScale="1" pageWidth="827" pageHeight="1169" math="0" shadow="0">
      <root>
        <mxCell id="0" />
        <mxCell id="1" parent="0" />
        <mxCell id="Uv_0OHZPawZKipcErMn9-1" value="" style="rounded=0;whiteSpace=wrap;html=1;fillColor=#d5e8d4;strokeColor=#82b366;" vertex="1" parent="1">
          <mxGeometry x="113" y="110" width="600" height="950" as="geometry" />
        </mxCell>
        <mxCell id="Uv_0OHZPawZKipcErMn9-2" value="Elsass Car" style="text;strokeColor=none;fillColor=none;html=1;fontSize=24;fontStyle=1;verticalAlign=middle;align=center;" vertex="1" parent="1">
          <mxGeometry x="580" y="130" width="100" height="40" as="geometry" />
        </mxCell>
        <mxCell id="Uv_0OHZPawZKipcErMn9-3" value="Créer un compte" style="ellipse;whiteSpace=wrap;html=1;" vertex="1" parent="1">
          <mxGeometry x="220" y="900" width="120" height="80" as="geometry" />
        </mxCell>
        <mxCell id="Uv_0OHZPawZKipcErMn9-29" value="" style="rounded=0;orthogonalLoop=1;jettySize=auto;html=1;entryX=0;entryY=0.5;entryDx=0;entryDy=0;endArrow=none;startFill=0;" edge="1" parent="1" source="Uv_0OHZPawZKipcErMn9-4" target="Uv_0OHZPawZKipcErMn9-28">
          <mxGeometry relative="1" as="geometry" />
        </mxCell>
        <mxCell id="Uv_0OHZPawZKipcErMn9-39" value="" style="rounded=0;orthogonalLoop=1;jettySize=auto;html=1;entryX=0;entryY=0.5;entryDx=0;entryDy=0;endArrow=none;startFill=0;" edge="1" parent="1" source="Uv_0OHZPawZKipcErMn9-4" target="Uv_0OHZPawZKipcErMn9-36">
          <mxGeometry relative="1" as="geometry" />
        </mxCell>
        <mxCell id="Uv_0OHZPawZKipcErMn9-40" value="" style="rounded=0;orthogonalLoop=1;jettySize=auto;html=1;entryX=0;entryY=0.5;entryDx=0;entryDy=0;endArrow=none;startFill=0;" edge="1" parent="1" source="Uv_0OHZPawZKipcErMn9-4" target="Uv_0OHZPawZKipcErMn9-35">
          <mxGeometry relative="1" as="geometry" />
        </mxCell>
        <mxCell id="Uv_0OHZPawZKipcErMn9-4" value="Administrateur" style="shape=umlActor;verticalLabelPosition=bottom;verticalAlign=top;html=1;outlineConnect=0;" vertex="1" parent="1">
          <mxGeometry x="40" y="320" width="30" height="60" as="geometry" />
        </mxCell>
        <mxCell id="Uv_0OHZPawZKipcErMn9-10" value="" style="rounded=0;orthogonalLoop=1;jettySize=auto;html=1;entryX=0;entryY=0.5;entryDx=0;entryDy=0;endArrow=none;startFill=0;" edge="1" parent="1" source="Uv_0OHZPawZKipcErMn9-5" target="Uv_0OHZPawZKipcErMn9-3">
          <mxGeometry relative="1" as="geometry" />
        </mxCell>
        <mxCell id="Uv_0OHZPawZKipcErMn9-12" value="" style="rounded=0;orthogonalLoop=1;jettySize=auto;html=1;entryX=0;entryY=0.5;entryDx=0;entryDy=0;endArrow=none;startFill=0;" edge="1" parent="1" source="Uv_0OHZPawZKipcErMn9-5" target="Uv_0OHZPawZKipcErMn9-11">
          <mxGeometry relative="1" as="geometry" />
        </mxCell>
        <mxCell id="Uv_0OHZPawZKipcErMn9-23" value="" style="rounded=0;orthogonalLoop=1;jettySize=auto;html=1;entryX=0;entryY=0.5;entryDx=0;entryDy=0;endArrow=none;startFill=0;" edge="1" parent="1" source="Uv_0OHZPawZKipcErMn9-5" target="Uv_0OHZPawZKipcErMn9-22">
          <mxGeometry relative="1" as="geometry" />
        </mxCell>
        <mxCell id="Uv_0OHZPawZKipcErMn9-5" value="Visiteur" style="shape=umlActor;verticalLabelPosition=bottom;verticalAlign=top;html=1;outlineConnect=0;" vertex="1" parent="1">
          <mxGeometry x="40" y="810" width="30" height="60" as="geometry" />
        </mxCell>
        <mxCell id="Uv_0OHZPawZKipcErMn9-32" value="" style="rounded=0;orthogonalLoop=1;jettySize=auto;html=1;entryX=1;entryY=0.5;entryDx=0;entryDy=0;endArrow=none;startFill=0;" edge="1" parent="1" source="Uv_0OHZPawZKipcErMn9-6" target="Uv_0OHZPawZKipcErMn9-31">
          <mxGeometry relative="1" as="geometry" />
        </mxCell>
        <mxCell id="Uv_0OHZPawZKipcErMn9-6" value="Employé" style="shape=umlActor;verticalLabelPosition=bottom;verticalAlign=top;html=1;outlineConnect=0;" vertex="1" parent="1">
          <mxGeometry x="751" y="320" width="30" height="60" as="geometry" />
        </mxCell>
        <mxCell id="Uv_0OHZPawZKipcErMn9-14" value="" style="rounded=0;orthogonalLoop=1;jettySize=auto;html=1;entryX=1;entryY=0.5;entryDx=0;entryDy=0;endArrow=none;startFill=0;" edge="1" parent="1" source="Uv_0OHZPawZKipcErMn9-7" target="Uv_0OHZPawZKipcErMn9-11">
          <mxGeometry relative="1" as="geometry" />
        </mxCell>
        <mxCell id="Uv_0OHZPawZKipcErMn9-25" value="" style="rounded=0;orthogonalLoop=1;jettySize=auto;html=1;entryX=1;entryY=0.5;entryDx=0;entryDy=0;endArrow=none;startFill=0;" edge="1" parent="1" source="Uv_0OHZPawZKipcErMn9-7" target="Uv_0OHZPawZKipcErMn9-24">
          <mxGeometry relative="1" as="geometry" />
        </mxCell>
        <mxCell id="Uv_0OHZPawZKipcErMn9-27" value="" style="rounded=0;orthogonalLoop=1;jettySize=auto;html=1;entryX=1;entryY=0.5;entryDx=0;entryDy=0;endArrow=none;startFill=0;" edge="1" parent="1" source="Uv_0OHZPawZKipcErMn9-7" target="Uv_0OHZPawZKipcErMn9-26">
          <mxGeometry relative="1" as="geometry" />
        </mxCell>
        <mxCell id="Uv_0OHZPawZKipcErMn9-7" value="Utilisateur" style="shape=umlActor;verticalLabelPosition=bottom;verticalAlign=top;html=1;outlineConnect=0;" vertex="1" parent="1">
          <mxGeometry x="751" y="810" width="30" height="60" as="geometry" />
        </mxCell>
        <mxCell id="Uv_0OHZPawZKipcErMn9-11" value="Participer a un covoiturage" style="ellipse;whiteSpace=wrap;html=1;" vertex="1" parent="1">
          <mxGeometry x="340" y="750" width="120" height="80" as="geometry" />
        </mxCell>
        <mxCell id="Uv_0OHZPawZKipcErMn9-20" style="rounded=0;orthogonalLoop=1;jettySize=auto;html=1;entryX=0.5;entryY=1;entryDx=0;entryDy=0;dashed=1;" edge="1" parent="1" source="Uv_0OHZPawZKipcErMn9-15" target="Uv_0OHZPawZKipcErMn9-11">
          <mxGeometry relative="1" as="geometry" />
        </mxCell>
        <mxCell id="Uv_0OHZPawZKipcErMn9-21" value="&amp;lt;&amp;lt;include&amp;gt;&amp;gt;" style="edgeLabel;html=1;align=center;verticalAlign=middle;resizable=0;points=[];" vertex="1" connectable="0" parent="Uv_0OHZPawZKipcErMn9-20">
          <mxGeometry x="0.0232" y="1" relative="1" as="geometry">
            <mxPoint as="offset" />
          </mxGeometry>
        </mxCell>
        <mxCell id="Uv_0OHZPawZKipcErMn9-15" value="Connexion" style="ellipse;whiteSpace=wrap;html=1;" vertex="1" parent="1">
          <mxGeometry x="340" y="940" width="120" height="80" as="geometry" />
        </mxCell>
        <mxCell id="Uv_0OHZPawZKipcErMn9-22" value="Voir covoiturages" style="ellipse;whiteSpace=wrap;html=1;" vertex="1" parent="1">
          <mxGeometry x="180" y="670" width="120" height="80" as="geometry" />
        </mxCell>
        <mxCell id="Uv_0OHZPawZKipcErMn9-24" value="Gérer ses covoiturages" style="ellipse;whiteSpace=wrap;html=1;" vertex="1" parent="1">
          <mxGeometry x="400" y="650" width="120" height="80" as="geometry" />
        </mxCell>
        <mxCell id="Uv_0OHZPawZKipcErMn9-26" value="Mofifier ses données personnel" style="ellipse;whiteSpace=wrap;html=1;" vertex="1" parent="1">
          <mxGeometry x="390" y="545" width="120" height="80" as="geometry" />
        </mxCell>
        <mxCell id="Uv_0OHZPawZKipcErMn9-28" value="Créer compte employé" style="ellipse;whiteSpace=wrap;html=1;" vertex="1" parent="1">
          <mxGeometry x="230" y="210" width="120" height="80" as="geometry" />
        </mxCell>
        <mxCell id="Uv_0OHZPawZKipcErMn9-30" value="Gérer les avis" style="ellipse;whiteSpace=wrap;html=1;" vertex="1" parent="1">
          <mxGeometry x="510" y="210" width="120" height="80" as="geometry" />
        </mxCell>
        <mxCell id="Uv_0OHZPawZKipcErMn9-31" value="Gérer les problème de covoiturages" style="ellipse;whiteSpace=wrap;html=1;" vertex="1" parent="1">
          <mxGeometry x="510" y="330" width="120" height="80" as="geometry" />
        </mxCell>
        <mxCell id="Uv_0OHZPawZKipcErMn9-33" value="" style="rounded=0;orthogonalLoop=1;jettySize=auto;html=1;entryX=1;entryY=0.5;entryDx=0;entryDy=0;endArrow=none;startFill=0;exitX=0;exitY=0.3333333333333333;exitDx=0;exitDy=0;exitPerimeter=0;" edge="1" parent="1" source="Uv_0OHZPawZKipcErMn9-6">
          <mxGeometry relative="1" as="geometry">
            <mxPoint x="751" y="229.78" as="sourcePoint" />
            <mxPoint x="631" y="247.78" as="targetPoint" />
          </mxGeometry>
        </mxCell>
        <mxCell id="Uv_0OHZPawZKipcErMn9-35" value="Voir le nombre de covoiturage par jour" style="ellipse;whiteSpace=wrap;html=1;" vertex="1" parent="1">
          <mxGeometry x="240" y="310" width="120" height="80" as="geometry" />
        </mxCell>
        <mxCell id="Uv_0OHZPawZKipcErMn9-36" value="Voir combien gagne la plateforme" style="ellipse;whiteSpace=wrap;html=1;" vertex="1" parent="1">
          <mxGeometry x="230" y="410" width="120" height="80" as="geometry" />
        </mxCell>
      </root>
    </mxGraphModel>
  </diagram>
</mxfile>
